<svg width="118" height="118" viewBox="0 0 118 118" fill="none" xmlns="http://www.w3.org/2000/svg">
<rect x="19.8389" width="100" height="100" rx="30" transform="rotate(11.4431 19.8389 0)" fill="#4E7452" fill-opacity="0.44"/>
<rect x="12.2598" y="10.2598" width="94" height="94" rx="30" fill="#6E9473"/>
<path d="M80.2285 58.7121L79.1921 57.6278L79.1843 57.6352L79.1767 57.6427L80.2285 58.7121ZM78.5098 60.4026L79.5448 61.4883L79.5533 61.4802L79.5616 61.472L78.5098 60.4026ZM47.1945 44.5875C46.8232 43.847 45.9219 43.5476 45.1813 43.9188C44.4407 44.2901 44.1413 45.1914 44.5126 45.932L45.8535 45.2598L47.1945 44.5875ZM52.2568 44.379C52.7172 43.6903 52.5321 42.7588 51.8433 42.2984C51.1546 41.838 50.223 42.0232 49.7627 42.7119L51.0098 43.5455L52.2568 44.379ZM47.1006 56.9976C46.6402 56.3089 45.7087 56.1238 45.02 56.5841C44.3312 57.0445 44.1461 57.976 44.6064 58.6647L45.8535 57.8312L47.1006 56.9976ZM52.2771 55.7765C52.7203 55.0766 52.5121 54.15 51.8122 53.7068C51.1123 53.2636 50.1857 53.4717 49.7425 54.1716L51.0098 54.9741L52.2771 55.7765ZM47.1389 69.058C46.7118 68.3481 45.7902 68.1188 45.0803 68.5458C44.3704 68.9729 44.1411 69.8945 44.5682 70.6044L45.8535 69.8312L47.1389 69.058ZM52.3258 67.1223C52.7233 66.3955 52.4563 65.4841 51.7295 65.0866C51.0026 64.6891 50.0912 64.9561 49.6937 65.6829L51.0098 66.4026L52.3258 67.1223ZM49.7035 45.4998L48.4564 44.6662L49.7035 45.4998ZM62.1199 34.7598V33.2598V34.7598ZM87.9132 54.0674L88.9725 53.0054L87.9132 54.0674ZM85.1189 54.0377L86.1554 55.122L85.1189 54.0377ZM54.2226 34.7598V33.2598V34.7598ZM49.1721 69.7629L47.856 69.0432L49.1721 69.7629ZM90.9512 59.8166L89.8503 58.7977L90.9512 59.8166ZM60.5804 77.4965L59.5453 76.4108L60.5804 77.4965ZM49.227 57.7895L50.4942 58.592L49.227 57.7895ZM78.5098 80.2598H80.0098V73.2598H78.5098H77.0098V80.2598H78.5098ZM78.5098 73.2598L79.6106 74.2786L92.052 60.8354L90.9512 59.8166L89.8503 58.7977L77.4089 72.2409L78.5098 73.2598ZM90.8957 57.0421L91.955 55.98L88.9725 53.0054L87.9132 54.0674L86.854 55.1294L89.8364 58.1041L90.8957 57.0421ZM42.2598 85.2598V86.7598H59.0306V85.2598V83.7598H42.2598V85.2598ZM59.0306 81.1153H57.5306V85.2598H59.0306H60.5306V81.1153H59.0306ZM59.0306 85.2598V86.7598H65.9056V85.2598V83.7598H59.0306V85.2598ZM65.9056 85.2598V86.7598H73.5098V85.2598V83.7598H65.9056V85.2598ZM78.5098 73.2598L77.4755 72.1734L64.8713 84.1734L65.9056 85.2598L66.9399 86.3461L79.5441 74.3461L78.5098 73.2598ZM85.1189 54.0377L84.0825 52.9533L79.1921 57.6278L80.2285 58.7121L81.265 59.7965L86.1554 55.122L85.1189 54.0377ZM85.9577 64.6883L87.0405 63.6503L81.3113 57.6741L80.2285 58.7121L79.1457 59.7502L84.8749 65.7264L85.9577 64.6883ZM80.2285 58.7121L79.1767 57.6427L77.4579 59.3332L78.5098 60.4026L79.5616 61.472L81.2803 59.7816L80.2285 58.7121ZM78.5098 60.4026H80.0098V35.974H78.5098H77.0098V60.4026H78.5098ZM73.5098 30.9741V29.4741H65.9056V30.9741V32.4741H73.5098V30.9741ZM62.1199 34.7598V33.2598L54.2226 33.2598V34.7598V36.2598L62.1199 36.2598V34.7598ZM54.1511 27.2598V28.7598H62.1913V27.2598V25.7598H54.1511V27.2598ZM50.4368 30.9741V29.4741H42.2598V30.9741V32.4741H50.4368V30.9741ZM37.2598 35.9741H35.7598V80.2598H37.2598H38.7598V35.9741H37.2598ZM49.7035 45.4998L50.9506 46.3333L52.2568 44.379L51.0098 43.5455L49.7627 42.7119L48.4564 44.6662L49.7035 45.4998ZM49.227 57.7895L50.4942 58.592L52.2771 55.7765L51.0098 54.9741L49.7425 54.1716L47.9597 56.987L49.227 57.7895ZM49.1721 69.7629L50.4881 70.4827L52.3258 67.1223L51.0098 66.4026L49.6937 65.6829L47.856 69.0432L49.1721 69.7629ZM56.7389 45.2598V46.7598H70.4889V45.2598V43.7598H56.7389V45.2598ZM56.7389 57.8312V59.3312H70.4889V57.8312V56.3312H56.7389V57.8312ZM78.5098 60.4026L77.4747 59.317L67.5853 68.7455L68.6203 69.8312L69.6554 70.9168L79.5448 61.4883L78.5098 60.4026ZM68.6203 69.8312L67.5853 68.7455L59.5453 76.4108L60.5804 77.4965L61.6155 78.5821L69.6554 70.9168L68.6203 69.8312ZM56.7389 69.8312V71.3312H68.6203V69.8312V68.3312H56.7389V69.8312ZM45.8535 45.2598L44.5126 45.932C45.7949 48.4899 49.3605 48.7122 50.9506 46.3333L49.7035 45.4998L48.4564 44.6662C48.1448 45.1325 47.4458 45.089 47.1945 44.5875L45.8535 45.2598ZM42.2598 30.9741V29.4741C38.6699 29.4741 35.7598 32.3842 35.7598 35.9741H37.2598H38.7598C38.7598 34.0411 40.3268 32.4741 42.2598 32.4741V30.9741ZM65.9056 30.9741H64.4056C64.4056 32.2364 63.3822 33.2598 62.1199 33.2598V34.7598V36.2598C65.0391 36.2598 67.4056 33.8933 67.4056 30.9741H65.9056ZM54.1511 27.2598V25.7598C51.2714 25.7598 48.9368 28.0943 48.9368 30.9741H50.4368H51.9368C51.9368 29.7511 52.9282 28.7598 54.1511 28.7598V27.2598ZM87.9132 54.0674L88.9725 53.0054C87.627 51.6633 85.4563 51.6402 84.0825 52.9533L85.1189 54.0377L86.1554 55.122C86.3516 54.9344 86.6617 54.9377 86.854 55.1294L87.9132 54.0674ZM54.2226 34.7598V33.2598C52.9602 33.2598 51.9368 32.2364 51.9368 30.9741H50.4368H48.9368C48.9368 33.8933 51.3033 36.2598 54.2226 36.2598V34.7598ZM45.8535 69.8312L44.5682 70.6044C45.9268 72.8629 49.2235 72.7951 50.4881 70.4827L49.1721 69.7629L47.856 69.0432C47.7028 69.3234 47.3035 69.3316 47.1389 69.058L45.8535 69.8312ZM90.9512 59.8166L92.052 60.8354C93.3304 59.4541 93.2875 57.3092 91.955 55.98L90.8957 57.0421L89.8364 58.1041C90.0268 58.294 90.0329 58.6004 89.8503 58.7977L90.9512 59.8166ZM78.5098 80.2598H77.0098C77.0098 82.1928 75.4428 83.7598 73.5098 83.7598V85.2598V86.7598C77.0996 86.7598 80.0098 83.8496 80.0098 80.2598H78.5098ZM62.1913 27.2598V28.7598C63.4142 28.7598 64.4056 29.7511 64.4056 30.9741H65.9056H67.4056C67.4056 28.0943 65.0711 25.7598 62.1913 25.7598V27.2598ZM59.0306 81.1153H60.5306C60.5306 80.1581 60.9226 79.2427 61.6155 78.5821L60.5804 77.4965L59.5453 76.4108C58.2587 77.6375 57.5306 79.3376 57.5306 81.1153H59.0306ZM78.5098 35.974H80.0098C80.0098 32.3842 77.0996 29.4741 73.5098 29.4741V30.9741V32.4741C75.4428 32.4741 77.0098 34.0411 77.0098 35.974H78.5098ZM45.8535 57.8312L44.6064 58.6647C46.018 60.7766 49.1353 60.7381 50.4942 58.592L49.227 57.7895L47.9597 56.987C47.7614 57.3002 47.3065 57.3058 47.1006 56.9976L45.8535 57.8312ZM42.2598 85.2598V83.7598C40.3268 83.7598 38.7598 82.1928 38.7598 80.2598H37.2598H35.7598C35.7598 83.8496 38.6699 86.7598 42.2598 86.7598V85.2598Z" fill="white"/>
</svg>
