<svg width="250" height="118" viewBox="0 0 250 118" fill="none" xmlns="http://www.w3.org/2000/svg">
<rect x="19.8389" width="100" height="100" rx="30" transform="rotate(11.4431 19.8389 0)" fill="#4E7452" fill-opacity="0.44"/>
<rect x="12.2598" y="10.2598" width="94" height="94" rx="30" fill="#6E9473"/>
<path d="M80.2285 58.7121L79.1921 57.6278L79.1843 57.6352L79.1767 57.6427L80.2285 58.7121ZM78.5098 60.4026L79.5448 61.4883L79.5533 61.4802L79.5616 61.472L78.5098 60.4026ZM47.1945 44.5875C46.8232 43.847 45.9219 43.5476 45.1813 43.9188C44.4407 44.2901 44.1413 45.1914 44.5126 45.932L45.8535 45.2598L47.1945 44.5875ZM52.2568 44.379C52.7172 43.6903 52.5321 42.7588 51.8433 42.2984C51.1546 41.838 50.223 42.0232 49.7627 42.7119L51.0098 43.5455L52.2568 44.379ZM47.1006 56.9976C46.6402 56.3089 45.7087 56.1238 45.02 56.5841C44.3312 57.0445 44.1461 57.976 44.6064 58.6647L45.8535 57.8312L47.1006 56.9976ZM52.2771 55.7765C52.7203 55.0766 52.5121 54.15 51.8122 53.7068C51.1123 53.2636 50.1857 53.4717 49.7425 54.1716L51.0098 54.9741L52.2771 55.7765ZM47.1389 69.058C46.7118 68.3481 45.7902 68.1188 45.0803 68.5458C44.3704 68.9729 44.1411 69.8945 44.5682 70.6044L45.8535 69.8312L47.1389 69.058ZM52.3258 67.1223C52.7233 66.3955 52.4563 65.4841 51.7295 65.0866C51.0026 64.6891 50.0912 64.9561 49.6937 65.6829L51.0098 66.4026L52.3258 67.1223ZM49.7035 45.4998L48.4564 44.6662L49.7035 45.4998ZM62.1199 34.7598V33.2598V34.7598ZM87.9132 54.0674L88.9725 53.0054L87.9132 54.0674ZM85.1189 54.0377L86.1554 55.122L85.1189 54.0377ZM54.2226 34.7598V33.2598V34.7598ZM49.1721 69.7629L47.856 69.0432L49.1721 69.7629ZM90.9512 59.8166L89.8503 58.7977L90.9512 59.8166ZM60.5804 77.4965L59.5453 76.4108L60.5804 77.4965ZM49.227 57.7895L50.4942 58.592L49.227 57.7895ZM78.5098 80.2598H80.0098V73.2598H78.5098H77.0098V80.2598H78.5098ZM78.5098 73.2598L79.6106 74.2786L92.052 60.8354L90.9512 59.8166L89.8503 58.7977L77.4089 72.2409L78.5098 73.2598ZM90.8957 57.0421L91.955 55.98L88.9725 53.0054L87.9132 54.0674L86.854 55.1294L89.8364 58.1041L90.8957 57.0421ZM42.2598 85.2598V86.7598H59.0306V85.2598V83.7598H42.2598V85.2598ZM59.0306 81.1153H57.5306V85.2598H59.0306H60.5306V81.1153H59.0306ZM59.0306 85.2598V86.7598H65.9056V85.2598V83.7598H59.0306V85.2598ZM65.9056 85.2598V86.7598H73.5098V85.2598V83.7598H65.9056V85.2598ZM78.5098 73.2598L77.4755 72.1734L64.8713 84.1734L65.9056 85.2598L66.9399 86.3461L79.5441 74.3461L78.5098 73.2598ZM85.1189 54.0377L84.0825 52.9533L79.1921 57.6278L80.2285 58.7121L81.265 59.7965L86.1554 55.122L85.1189 54.0377ZM85.9577 64.6883L87.0405 63.6503L81.3113 57.6741L80.2285 58.7121L79.1457 59.7502L84.8749 65.7264L85.9577 64.6883ZM80.2285 58.7121L79.1767 57.6427L77.4579 59.3332L78.5098 60.4026L79.5616 61.472L81.2803 59.7816L80.2285 58.7121ZM78.5098 60.4026H80.0098V35.974H78.5098H77.0098V60.4026H78.5098ZM73.5098 30.9741V29.4741H65.9056V30.9741V32.4741H73.5098V30.9741ZM62.1199 34.7598V33.2598L54.2226 33.2598V34.7598V36.2598L62.1199 36.2598V34.7598ZM54.1511 27.2598V28.7598H62.1913V27.2598V25.7598H54.1511V27.2598ZM50.4368 30.9741V29.4741H42.2598V30.9741V32.4741H50.4368V30.9741ZM37.2598 35.9741H35.7598V80.2598H37.2598H38.7598V35.9741H37.2598ZM49.7035 45.4998L50.9506 46.3333L52.2568 44.379L51.0098 43.5455L49.7627 42.7119L48.4564 44.6662L49.7035 45.4998ZM49.227 57.7895L50.4942 58.592L52.2771 55.7765L51.0098 54.9741L49.7425 54.1716L47.9597 56.987L49.227 57.7895ZM49.1721 69.7629L50.4881 70.4827L52.3258 67.1223L51.0098 66.4026L49.6937 65.6829L47.856 69.0432L49.1721 69.7629ZM56.7389 45.2598V46.7598H70.4889V45.2598V43.7598H56.7389V45.2598ZM56.7389 57.8312V59.3312H70.4889V57.8312V56.3312H56.7389V57.8312ZM78.5098 60.4026L77.4747 59.317L67.5853 68.7455L68.6203 69.8312L69.6554 70.9168L79.5448 61.4883L78.5098 60.4026ZM68.6203 69.8312L67.5853 68.7455L59.5453 76.4108L60.5804 77.4965L61.6155 78.5821L69.6554 70.9168L68.6203 69.8312ZM56.7389 69.8312V71.3312H68.6203V69.8312V68.3312H56.7389V69.8312ZM45.8535 45.2598L44.5126 45.932C45.7949 48.4899 49.3605 48.7122 50.9506 46.3333L49.7035 45.4998L48.4564 44.6662C48.1448 45.1325 47.4458 45.089 47.1945 44.5875L45.8535 45.2598ZM42.2598 30.9741V29.4741C38.6699 29.4741 35.7598 32.3842 35.7598 35.9741H37.2598H38.7598C38.7598 34.0411 40.3268 32.4741 42.2598 32.4741V30.9741ZM65.9056 30.9741H64.4056C64.4056 32.2364 63.3822 33.2598 62.1199 33.2598V34.7598V36.2598C65.0391 36.2598 67.4056 33.8933 67.4056 30.9741H65.9056ZM54.1511 27.2598V25.7598C51.2714 25.7598 48.9368 28.0943 48.9368 30.9741H50.4368H51.9368C51.9368 29.7511 52.9282 28.7598 54.1511 28.7598V27.2598ZM87.9132 54.0674L88.9725 53.0054C87.627 51.6633 85.4563 51.6402 84.0825 52.9533L85.1189 54.0377L86.1554 55.122C86.3516 54.9344 86.6617 54.9377 86.854 55.1294L87.9132 54.0674ZM54.2226 34.7598V33.2598C52.9602 33.2598 51.9368 32.2364 51.9368 30.9741H50.4368H48.9368C48.9368 33.8933 51.3033 36.2598 54.2226 36.2598V34.7598ZM45.8535 69.8312L44.5682 70.6044C45.9268 72.8629 49.2235 72.7951 50.4881 70.4827L49.1721 69.7629L47.856 69.0432C47.7028 69.3234 47.3035 69.3316 47.1389 69.058L45.8535 69.8312ZM90.9512 59.8166L92.052 60.8354C93.3304 59.4541 93.2875 57.3092 91.955 55.98L90.8957 57.0421L89.8364 58.1041C90.0268 58.294 90.0329 58.6004 89.8503 58.7977L90.9512 59.8166ZM78.5098 80.2598H77.0098C77.0098 82.1928 75.4428 83.7598 73.5098 83.7598V85.2598V86.7598C77.0996 86.7598 80.0098 83.8496 80.0098 80.2598H78.5098ZM62.1913 27.2598V28.7598C63.4142 28.7598 64.4056 29.7511 64.4056 30.9741H65.9056H67.4056C67.4056 28.0943 65.0711 25.7598 62.1913 25.7598V27.2598ZM59.0306 81.1153H60.5306C60.5306 80.1581 60.9226 79.2427 61.6155 78.5821L60.5804 77.4965L59.5453 76.4108C58.2587 77.6375 57.5306 79.3376 57.5306 81.1153H59.0306ZM78.5098 35.974H80.0098C80.0098 32.3842 77.0996 29.4741 73.5098 29.4741V30.9741V32.4741C75.4428 32.4741 77.0098 34.0411 77.0098 35.974H78.5098ZM45.8535 57.8312L44.6064 58.6647C46.018 60.7766 49.1353 60.7381 50.4942 58.592L49.227 57.7895L47.9597 56.987C47.7614 57.3002 47.3065 57.3058 47.1006 56.9976L45.8535 57.8312ZM42.2598 85.2598V83.7598C40.3268 83.7598 38.7598 82.1928 38.7598 80.2598H37.2598H35.7598C35.7598 83.8496 38.6699 86.7598 42.2598 86.7598V85.2598Z" fill="white"/>
<path d="M130.26 58.2598V20.0998H115.5V16.2598H149.46V20.0998H134.7V58.2598H130.26ZM173.635 58.2598V51.2998L173.455 50.1598V38.5198C173.455 35.8398 172.695 33.7798 171.175 32.3398C169.695 30.8998 167.475 30.1798 164.515 30.1798C162.475 30.1798 160.535 30.5198 158.695 31.1998C156.855 31.8798 155.295 32.7798 154.015 33.8998L152.095 30.7198C153.695 29.3598 155.615 28.3198 157.855 27.5998C160.095 26.8398 162.455 26.4598 164.935 26.4598C169.015 26.4598 172.155 27.4798 174.355 29.5198C176.595 31.5198 177.715 34.5798 177.715 38.6998V58.2598H173.635ZM162.775 58.5598C160.415 58.5598 158.355 58.1798 156.595 57.4198C154.875 56.6198 153.555 55.5398 152.635 54.1798C151.715 52.7798 151.255 51.1798 151.255 49.3798C151.255 47.7398 151.635 46.2598 152.395 44.9398C153.195 43.5798 154.475 42.4998 156.235 41.6998C158.035 40.8598 160.435 40.4398 163.435 40.4398H174.295V43.6198H163.555C160.515 43.6198 158.395 44.1598 157.195 45.2398C156.035 46.3198 155.455 47.6598 155.455 49.2598C155.455 51.0598 156.155 52.4998 157.555 53.5798C158.955 54.6598 160.915 55.1998 163.435 55.1998C165.835 55.1998 167.895 54.6598 169.615 53.5798C171.375 52.4598 172.655 50.8598 173.455 48.7798L174.415 51.7198C173.615 53.7998 172.215 55.4598 170.215 56.6998C168.255 57.9398 165.775 58.5598 162.775 58.5598ZM197.746 58.5598C195.146 58.5598 192.686 58.1998 190.366 57.4798C188.046 56.7198 186.226 55.7798 184.906 54.6598L186.826 51.2998C188.106 52.2598 189.746 53.0998 191.746 53.8198C193.746 54.4998 195.846 54.8398 198.046 54.8398C201.046 54.8398 203.206 54.3798 204.526 53.4598C205.846 52.4998 206.506 51.2398 206.506 49.6798C206.506 48.5198 206.126 47.6198 205.366 46.9798C204.646 46.2998 203.686 45.7998 202.486 45.4798C201.286 45.1198 199.946 44.8198 198.466 44.5798C196.986 44.3398 195.506 44.0598 194.026 43.7398C192.586 43.4198 191.266 42.9598 190.066 42.3598C188.866 41.7198 187.886 40.8598 187.126 39.7798C186.406 38.6998 186.046 37.2598 186.046 35.4598C186.046 33.7398 186.526 32.1998 187.486 30.8398C188.446 29.4798 189.846 28.4198 191.686 27.6598C193.566 26.8598 195.846 26.4598 198.526 26.4598C200.566 26.4598 202.606 26.7398 204.646 27.2998C206.686 27.8198 208.366 28.5198 209.686 29.3998L207.826 32.8198C206.426 31.8598 204.926 31.1798 203.326 30.7798C201.726 30.3398 200.126 30.1198 198.526 30.1198C195.686 30.1198 193.586 30.6198 192.226 31.6198C190.906 32.5798 190.246 33.8198 190.246 35.3398C190.246 36.5398 190.606 37.4798 191.326 38.1598C192.086 38.8398 193.066 39.3798 194.266 39.7798C195.506 40.1398 196.846 40.4398 198.286 40.6798C199.766 40.9198 201.226 41.2198 202.666 41.5798C204.146 41.8998 205.486 42.3598 206.686 42.9598C207.926 43.5198 208.906 44.3398 209.626 45.4198C210.386 46.4598 210.766 47.8398 210.766 49.5598C210.766 51.3998 210.246 52.9998 209.206 54.3598C208.206 55.6798 206.726 56.7198 204.766 57.4798C202.846 58.1998 200.506 58.5598 197.746 58.5598ZM221.943 50.0998L222.063 44.6398L241.683 26.7598H246.903L233.043 40.0198L230.643 42.0598L221.943 50.0998ZM218.583 58.2598V13.7398H222.843V58.2598H218.583ZM243.003 58.2598L229.863 41.8798L232.623 38.5798L248.223 58.2598H243.003Z" fill="black"/>
<path d="M131.82 95.2598V67.2598H151.02V69.8198H134.78V95.2598H131.82ZM134.46 83.3798V80.8198H149.26V83.3798H134.46ZM156.532 95.2598V65.5798H159.372V95.2598H156.532ZM175.834 95.4598C173.808 95.4598 171.981 95.0064 170.354 94.0998C168.754 93.1664 167.488 91.8998 166.554 90.2998C165.621 88.6731 165.154 86.8198 165.154 84.7398C165.154 82.6331 165.621 80.7798 166.554 79.1798C167.488 77.5798 168.754 76.3264 170.354 75.4198C171.954 74.5131 173.781 74.0598 175.834 74.0598C177.914 74.0598 179.754 74.5131 181.354 75.4198C182.981 76.3264 184.248 77.5798 185.154 79.1798C186.088 80.7798 186.554 82.6331 186.554 84.7398C186.554 86.8198 186.088 88.6731 185.154 90.2998C184.248 91.8998 182.981 93.1664 181.354 94.0998C179.728 95.0064 177.888 95.4598 175.834 95.4598ZM175.834 92.9398C177.354 92.9398 178.701 92.6064 179.874 91.9398C181.048 91.2464 181.968 90.2864 182.634 89.0598C183.328 87.8064 183.674 86.3664 183.674 84.7398C183.674 83.0864 183.328 81.6464 182.634 80.4198C181.968 79.1931 181.048 78.2464 179.874 77.5798C178.701 76.8864 177.368 76.5398 175.874 76.5398C174.381 76.5398 173.048 76.8864 171.874 77.5798C170.701 78.2464 169.768 79.1931 169.074 80.4198C168.381 81.6464 168.034 83.0864 168.034 84.7398C168.034 86.3664 168.381 87.8064 169.074 89.0598C169.768 90.2864 170.701 91.2464 171.874 91.9398C173.048 92.6064 174.368 92.9398 175.834 92.9398ZM196.047 95.2598L188.127 74.2598H190.847L198.047 93.7398H196.807L204.207 74.2598H206.647L213.967 93.7398H212.727L220.047 74.2598H222.647L214.687 95.2598H212.007L204.967 76.9398H205.807L198.727 95.2598H196.047Z" fill="black"/>
</svg>
